<svg height="85.333336" viewBox="0 0 85.333336 85.333336" width="85.333336" xmlns="http://www.w3.org/2000/svg"><g transform="matrix(.13333333 0 0 -.13333333 0 85.333333)"><path d="m640 320c0-176.73-143.27-320-320-320s-320 143.27-320 320 143.27 320 320 320 320-143.27 320-320" fill="#7db6d8"/><path d="m480 100h-320c-22.094 0-40 17.91-40 40v250-230c0-22.09 17.906-40 40-40h320c22.094 0 40 17.91 40 40v-20c0-22.09-17.906-40-40-40" fill="#6594b2"/><path d="m120 410v-250c0-22.09 17.906-40 40-40h320c22.094 0 40 17.91 40 40v250z" fill="#fff"/><path d="m120 390h400v20h-400z" fill="#d4d3d1"/><path d="m480 520h-320c-22.094 0-40-17.906-40-40v-70h400v70c0 22.094-17.906 40-40 40" fill="#c84755"/><path d="m320 160c-11.047 0-20 8.953-20 20 0 55.145 17.566 94.551 34.91 120h-64.91c-11.047 0-20 8.953-20 20s8.953 20 20 20h110c8.711 0 16.418-5.637 19.059-13.937 2.64-8.297-.391-17.352-7.496-22.379-1.997-1.465-51.563-38.618-51.563-123.684 0-11.047-8.953-20-20-20" fill="#495672"/><path d="m220 520h-40c0 11.047 8.953 20 20 20s20-8.953 20-20" fill="#6594b2"/><path d="m200 430c-11.047 0-20 8.953-20 20v70h40v-70c0-11.047-8.953-20-20-20" fill="#a43f4a"/><path d="m470 520h-40c0 11.047 8.953 20 20 20s20-8.953 20-20" fill="#6594b2"/><path d="m450 430c-11.047 0-20 8.953-20 20v70h40v-70c0-11.047-8.953-20-20-20" fill="#a43f4a"/><g fill="#e1e3cc"><path d="m200 450c-11.047 0-20 8.953-20 20v70c0 11.047 8.953 20 20 20s20-8.953 20-20v-70c0-11.047-8.953-20-20-20"/><path d="m450 450c-11.047 0-20 8.953-20 20v70c0 11.047 8.953 20 20 20s20-8.953 20-20v-70c0-11.047-8.953-20-20-20"/></g></g></svg>